<mxfile host="Electron" modified="2024-05-05T08:29:16.562Z" agent="Mozilla/5.0 (Windows NT 10.0; Win64; x64) AppleWebKit/537.36 (KHTML, like Gecko) draw.io/21.7.5 Chrome/114.0.5735.289 Electron/25.8.1 Safari/537.36" etag="ujPh7-O2KT6CB4NEAtlg" version="21.7.5" type="device">
  <diagram name="Страница — 1" id="0ob94d1Z4Xb_pxYPIYL_">
    <mxGraphModel dx="1687" dy="994" grid="0" gridSize="10" guides="1" tooltips="1" connect="1" arrows="1" fold="1" page="1" pageScale="1" pageWidth="827" pageHeight="1169" background="none" math="0" shadow="0">
      <root>
        <mxCell id="0" />
        <mxCell id="1" parent="0" />
        <mxCell id="JVdJahdLyJPOHN2m_xLs-28" style="edgeStyle=orthogonalEdgeStyle;rounded=0;orthogonalLoop=1;jettySize=auto;html=1;" edge="1" parent="1" source="JVdJahdLyJPOHN2m_xLs-1" target="JVdJahdLyJPOHN2m_xLs-3">
          <mxGeometry relative="1" as="geometry" />
        </mxCell>
        <mxCell id="JVdJahdLyJPOHN2m_xLs-32" style="edgeStyle=orthogonalEdgeStyle;rounded=0;orthogonalLoop=1;jettySize=auto;html=1;" edge="1" parent="1" source="JVdJahdLyJPOHN2m_xLs-1">
          <mxGeometry relative="1" as="geometry">
            <mxPoint x="578.1428571428573" y="148" as="targetPoint" />
          </mxGeometry>
        </mxCell>
        <mxCell id="JVdJahdLyJPOHN2m_xLs-1" value="Пользователь" style="shape=umlActor;verticalLabelPosition=bottom;verticalAlign=top;html=1;outlineConnect=0;" vertex="1" parent="1">
          <mxGeometry x="445" y="118" width="30" height="60" as="geometry" />
        </mxCell>
        <mxCell id="JVdJahdLyJPOHN2m_xLs-10" style="edgeStyle=orthogonalEdgeStyle;rounded=0;orthogonalLoop=1;jettySize=auto;html=1;entryX=0.5;entryY=0;entryDx=0;entryDy=0;" edge="1" parent="1" source="JVdJahdLyJPOHN2m_xLs-2" target="JVdJahdLyJPOHN2m_xLs-6">
          <mxGeometry relative="1" as="geometry">
            <Array as="points">
              <mxPoint x="270" y="548" />
              <mxPoint x="60" y="548" />
            </Array>
          </mxGeometry>
        </mxCell>
        <mxCell id="JVdJahdLyJPOHN2m_xLs-11" style="edgeStyle=orthogonalEdgeStyle;rounded=0;orthogonalLoop=1;jettySize=auto;html=1;entryX=0.5;entryY=0;entryDx=0;entryDy=0;" edge="1" parent="1" source="JVdJahdLyJPOHN2m_xLs-2" target="JVdJahdLyJPOHN2m_xLs-7">
          <mxGeometry relative="1" as="geometry">
            <Array as="points">
              <mxPoint x="270" y="548" />
              <mxPoint x="200" y="548" />
            </Array>
          </mxGeometry>
        </mxCell>
        <mxCell id="JVdJahdLyJPOHN2m_xLs-12" style="edgeStyle=orthogonalEdgeStyle;rounded=0;orthogonalLoop=1;jettySize=auto;html=1;entryX=0.5;entryY=0;entryDx=0;entryDy=0;" edge="1" parent="1" source="JVdJahdLyJPOHN2m_xLs-2" target="JVdJahdLyJPOHN2m_xLs-8">
          <mxGeometry relative="1" as="geometry">
            <Array as="points">
              <mxPoint x="270" y="548" />
              <mxPoint x="340" y="548" />
            </Array>
          </mxGeometry>
        </mxCell>
        <mxCell id="JVdJahdLyJPOHN2m_xLs-13" style="edgeStyle=orthogonalEdgeStyle;rounded=0;orthogonalLoop=1;jettySize=auto;html=1;entryX=0.5;entryY=0;entryDx=0;entryDy=0;" edge="1" parent="1" source="JVdJahdLyJPOHN2m_xLs-2" target="JVdJahdLyJPOHN2m_xLs-9">
          <mxGeometry relative="1" as="geometry">
            <Array as="points">
              <mxPoint x="270" y="548" />
              <mxPoint x="470" y="548" />
            </Array>
          </mxGeometry>
        </mxCell>
        <mxCell id="JVdJahdLyJPOHN2m_xLs-2" value="Создать аккаунт" style="ellipse;whiteSpace=wrap;html=1;" vertex="1" parent="1">
          <mxGeometry x="210" y="438" width="120" height="80" as="geometry" />
        </mxCell>
        <mxCell id="JVdJahdLyJPOHN2m_xLs-14" style="edgeStyle=orthogonalEdgeStyle;rounded=0;orthogonalLoop=1;jettySize=auto;html=1;entryX=0.5;entryY=0;entryDx=0;entryDy=0;exitX=0.5;exitY=1;exitDx=0;exitDy=0;" edge="1" parent="1" source="JVdJahdLyJPOHN2m_xLs-3" target="JVdJahdLyJPOHN2m_xLs-2">
          <mxGeometry relative="1" as="geometry">
            <Array as="points">
              <mxPoint x="460" y="398" />
              <mxPoint x="270" y="398" />
            </Array>
          </mxGeometry>
        </mxCell>
        <mxCell id="JVdJahdLyJPOHN2m_xLs-15" style="edgeStyle=orthogonalEdgeStyle;rounded=0;orthogonalLoop=1;jettySize=auto;html=1;entryX=0.5;entryY=0;entryDx=0;entryDy=0;" edge="1" parent="1" source="JVdJahdLyJPOHN2m_xLs-3" target="JVdJahdLyJPOHN2m_xLs-4">
          <mxGeometry relative="1" as="geometry">
            <Array as="points">
              <mxPoint x="460" y="398" />
              <mxPoint x="674" y="398" />
            </Array>
          </mxGeometry>
        </mxCell>
        <mxCell id="JVdJahdLyJPOHN2m_xLs-3" value="Аутентификация" style="ellipse;whiteSpace=wrap;html=1;" vertex="1" parent="1">
          <mxGeometry x="400" y="278" width="120" height="80" as="geometry" />
        </mxCell>
        <mxCell id="JVdJahdLyJPOHN2m_xLs-19" style="edgeStyle=orthogonalEdgeStyle;rounded=0;orthogonalLoop=1;jettySize=auto;html=1;entryX=0.5;entryY=0;entryDx=0;entryDy=0;" edge="1" parent="1" source="JVdJahdLyJPOHN2m_xLs-4" target="JVdJahdLyJPOHN2m_xLs-16">
          <mxGeometry relative="1" as="geometry" />
        </mxCell>
        <mxCell id="JVdJahdLyJPOHN2m_xLs-20" style="edgeStyle=orthogonalEdgeStyle;rounded=0;orthogonalLoop=1;jettySize=auto;html=1;" edge="1" parent="1" source="JVdJahdLyJPOHN2m_xLs-4" target="JVdJahdLyJPOHN2m_xLs-18">
          <mxGeometry relative="1" as="geometry" />
        </mxCell>
        <mxCell id="JVdJahdLyJPOHN2m_xLs-4" value="Вход в существующий аккаунт" style="ellipse;whiteSpace=wrap;html=1;" vertex="1" parent="1">
          <mxGeometry x="614" y="448" width="120" height="80" as="geometry" />
        </mxCell>
        <mxCell id="JVdJahdLyJPOHN2m_xLs-6" value="Ввод логина" style="ellipse;whiteSpace=wrap;html=1;" vertex="1" parent="1">
          <mxGeometry y="618" width="120" height="80" as="geometry" />
        </mxCell>
        <mxCell id="JVdJahdLyJPOHN2m_xLs-7" value="Ввод почты" style="ellipse;whiteSpace=wrap;html=1;" vertex="1" parent="1">
          <mxGeometry x="140" y="618" width="120" height="80" as="geometry" />
        </mxCell>
        <mxCell id="JVdJahdLyJPOHN2m_xLs-8" value="Загрузка изображения-аватара" style="ellipse;whiteSpace=wrap;html=1;" vertex="1" parent="1">
          <mxGeometry x="280" y="618" width="120" height="80" as="geometry" />
        </mxCell>
        <mxCell id="JVdJahdLyJPOHN2m_xLs-9" value="Ввод пароля" style="ellipse;whiteSpace=wrap;html=1;" vertex="1" parent="1">
          <mxGeometry x="410" y="618" width="120" height="80" as="geometry" />
        </mxCell>
        <mxCell id="JVdJahdLyJPOHN2m_xLs-21" style="edgeStyle=orthogonalEdgeStyle;rounded=0;orthogonalLoop=1;jettySize=auto;html=1;entryX=0.5;entryY=0;entryDx=0;entryDy=0;" edge="1" parent="1" source="JVdJahdLyJPOHN2m_xLs-16" target="JVdJahdLyJPOHN2m_xLs-24">
          <mxGeometry relative="1" as="geometry">
            <mxPoint x="670" y="798" as="targetPoint" />
          </mxGeometry>
        </mxCell>
        <mxCell id="JVdJahdLyJPOHN2m_xLs-31" style="edgeStyle=orthogonalEdgeStyle;rounded=0;orthogonalLoop=1;jettySize=auto;html=1;entryX=0.5;entryY=0;entryDx=0;entryDy=0;" edge="1" parent="1" source="JVdJahdLyJPOHN2m_xLs-16" target="JVdJahdLyJPOHN2m_xLs-29">
          <mxGeometry relative="1" as="geometry">
            <Array as="points">
              <mxPoint x="610" y="768" />
              <mxPoint x="740" y="768" />
            </Array>
          </mxGeometry>
        </mxCell>
        <mxCell id="JVdJahdLyJPOHN2m_xLs-16" value="Ввод логина" style="ellipse;whiteSpace=wrap;html=1;" vertex="1" parent="1">
          <mxGeometry x="550" y="618" width="120" height="80" as="geometry" />
        </mxCell>
        <mxCell id="JVdJahdLyJPOHN2m_xLs-22" style="edgeStyle=orthogonalEdgeStyle;rounded=0;orthogonalLoop=1;jettySize=auto;html=1;exitX=0.5;exitY=1;exitDx=0;exitDy=0;entryX=0.5;entryY=0;entryDx=0;entryDy=0;" edge="1" parent="1" source="JVdJahdLyJPOHN2m_xLs-18" target="JVdJahdLyJPOHN2m_xLs-24">
          <mxGeometry relative="1" as="geometry">
            <mxPoint x="670" y="798" as="targetPoint" />
            <Array as="points">
              <mxPoint x="740" y="768" />
              <mxPoint x="610" y="768" />
            </Array>
          </mxGeometry>
        </mxCell>
        <mxCell id="JVdJahdLyJPOHN2m_xLs-30" style="edgeStyle=orthogonalEdgeStyle;rounded=0;orthogonalLoop=1;jettySize=auto;html=1;" edge="1" parent="1" source="JVdJahdLyJPOHN2m_xLs-18" target="JVdJahdLyJPOHN2m_xLs-29">
          <mxGeometry relative="1" as="geometry" />
        </mxCell>
        <mxCell id="JVdJahdLyJPOHN2m_xLs-18" value="Ввод пароля" style="ellipse;whiteSpace=wrap;html=1;" vertex="1" parent="1">
          <mxGeometry x="680" y="618" width="120" height="80" as="geometry" />
        </mxCell>
        <mxCell id="JVdJahdLyJPOHN2m_xLs-23" value="Написание и отправка сообщения" style="ellipse;whiteSpace=wrap;html=1;" vertex="1" parent="1">
          <mxGeometry x="550" y="948" width="120" height="80" as="geometry" />
        </mxCell>
        <mxCell id="JVdJahdLyJPOHN2m_xLs-27" style="edgeStyle=orthogonalEdgeStyle;rounded=0;orthogonalLoop=1;jettySize=auto;html=1;" edge="1" parent="1" source="JVdJahdLyJPOHN2m_xLs-24" target="JVdJahdLyJPOHN2m_xLs-23">
          <mxGeometry relative="1" as="geometry" />
        </mxCell>
        <mxCell id="JVdJahdLyJPOHN2m_xLs-24" value="Поиск контакта" style="ellipse;whiteSpace=wrap;html=1;" vertex="1" parent="1">
          <mxGeometry x="550" y="828" width="120" height="80" as="geometry" />
        </mxCell>
        <mxCell id="JVdJahdLyJPOHN2m_xLs-29" value="Получение писем" style="ellipse;whiteSpace=wrap;html=1;" vertex="1" parent="1">
          <mxGeometry x="680" y="828" width="120" height="80" as="geometry" />
        </mxCell>
        <mxCell id="JVdJahdLyJPOHN2m_xLs-35" style="edgeStyle=orthogonalEdgeStyle;rounded=0;orthogonalLoop=1;jettySize=auto;html=1;entryX=1;entryY=0.5;entryDx=0;entryDy=0;" edge="1" parent="1" source="JVdJahdLyJPOHN2m_xLs-33" target="JVdJahdLyJPOHN2m_xLs-3">
          <mxGeometry relative="1" as="geometry">
            <Array as="points">
              <mxPoint x="735" y="148" />
              <mxPoint x="735" y="318" />
            </Array>
          </mxGeometry>
        </mxCell>
        <mxCell id="JVdJahdLyJPOHN2m_xLs-33" value="Смена темы" style="ellipse;whiteSpace=wrap;html=1;" vertex="1" parent="1">
          <mxGeometry x="575" y="108" width="120" height="80" as="geometry" />
        </mxCell>
      </root>
    </mxGraphModel>
  </diagram>
</mxfile>
